<?xml version="1.0" encoding="UTF-8" standalone="no"?>
<!-- Created with Inkscape (http://www.inkscape.org/) -->

<svg
   width="210mm"
   height="297mm"
   viewBox="0 0 210 297"
   version="1.1"
   id="svg5"
   inkscape:version="1.1.2 (b8e25be833, 2022-02-05)"
   sodipodi:docname="favicon.svg"
   xmlns:inkscape="http://www.inkscape.org/namespaces/inkscape"
   xmlns:sodipodi="http://sodipodi.sourceforge.net/DTD/sodipodi-0.dtd"
   xmlns="http://www.w3.org/2000/svg"
   xmlns:svg="http://www.w3.org/2000/svg">
  <sodipodi:namedview
     id="namedview7"
     pagecolor="#ffffff"
     bordercolor="#999999"
     borderopacity="1"
     inkscape:pageshadow="0"
     inkscape:pageopacity="0"
     inkscape:pagecheckerboard="0"
     inkscape:document-units="mm"
     showgrid="false"
     inkscape:zoom="22.627417"
     inkscape:cx="10.186757"
     inkscape:cy="8.8388348"
     inkscape:window-width="1920"
     inkscape:window-height="1057"
     inkscape:window-x="-8"
     inkscape:window-y="-8"
     inkscape:window-maximized="1"
     inkscape:current-layer="g21267" />
  <defs
     id="defs2" />
  <g
     inkscape:label="Calque 1"
     inkscape:groupmode="layer"
     id="layer1">
    <text
       xml:space="preserve"
       style="font-style:normal;font-variant:normal;font-weight:normal;font-stretch:normal;font-size:50.8px;line-height:1.25;font-family:'Microsoft Sans Serif';-inkscape-font-specification:'Microsoft Sans Serif';word-spacing:0px;stroke-width:0.264583"
       x="120.38541"
       y="52.91666"
       id="text30751"><tspan
         sodipodi:role="line"
         id="tspan30749"
         style="font-style:normal;font-variant:normal;font-weight:normal;font-stretch:normal;font-family:'Microsoft Sans Serif';-inkscape-font-specification:'Microsoft Sans Serif';stroke-width:0.264583"
         x="120.38541"
         y="52.91666" /></text>
    <path
       d=""
       id="path43749"
       style="stroke-width:0.707107"
       transform="scale(0.26458333)" />
    <g
       id="g21267"
       style="fill:#1a1a1a"
       transform="matrix(3.5251414,0,0,3.8434106,-124.51772,-435.56141)">
      <path
         id="path13304"
         style="font-size:52.4013px;line-height:1.25;font-family:Heavitas;-inkscape-font-specification:Heavitas;word-spacing:0px;fill:white;stroke-width:0.272923"
         d="m 36.548721,113.33487 c -0.372533,0 -0.677239,0.12611 -0.914306,0.37836 -0.2032,0.25225 -0.304769,0.55851 -0.304769,0.91886 v 40.14735 c 0,0.36035 0.101569,0.66661 0.304769,0.91886 0.237067,0.25225 0.541773,0.37849 0.914306,0.37849 h 6.475348 c 0.338666,0 0.626517,-0.12624 0.863584,-0.37849 0.237067,-0.25225 0.355637,-0.55851 0.355637,-0.91886 v -14.25582 c 0,-0.36035 0.06771,-0.57665 0.203179,-0.64875 0.169334,-0.0721 0.372471,0.0362 0.609537,0.32444 l 2.812112,3.15081 2.57243,3.04016 1.777305,2.33856 -5.34804,12.84956 12.156448,-18.46021 c -1.253067,-1.47745 -2.523043,-2.93696 -3.809976,-4.37838 -1.286934,-1.44141 -2.506052,-2.82874 -3.657518,-4.16205 -0.237068,-0.25225 -0.372635,-0.55851 -0.406505,-0.91886 0,-0.39639 0.101715,-0.73881 0.304915,-1.0271 l 13.360278,-17.78351 c 0.203199,-0.28828 0.254057,-0.59454 0.152457,-0.91886 -0.1016,-0.36035 -0.338741,-0.54051 -0.711274,-0.54051 h -8.178915 c -0.372532,0 -0.745099,0.1081 -1.117632,0.32431 -0.372533,0.18017 -0.660385,0.41437 -0.863584,0.70266 l -9.14409,12.91867 c -0.2032,0.28827 -0.372481,0.41449 -0.507948,0.37849 -0.13547,-0.0721 -0.203179,-0.2884 -0.203179,-0.64875 v -12.43221 c 0,-0.36035 -0.11857,-0.66661 -0.355637,-0.91886 -0.237067,-0.25225 -0.524918,-0.37836 -0.863584,-0.37836 z m 40.262462,4.53018 c 0,0 -14.802615,22.14651 -14.802615,22.52559 v 23.83262 c 0,0.37908 0.101569,0.70124 0.304769,0.9666 0.237067,0.26536 0.54192,0.39812 0.914453,0.39812 h 22.17409 c 0.338671,0 0.626525,-0.13276 0.863585,-0.39812 0.237065,-0.26536 0.355637,-0.58752 0.355637,-0.9666 v -5.48279 c 0,-0.37908 -0.118572,-0.70137 -0.355637,-0.96673 -0.23706,-0.26536 -0.524914,-0.39798 -0.863585,-0.39798 H 71.833732 c -0.372532,0 -0.677385,-0.13276 -0.914452,-0.39812 -0.2032,-0.26536 -0.299369,-0.58757 -0.304769,-0.9666 l -0.264602,-18.44596 v -1.11342 z" />
    </g>
  </g>
</svg>
